<svg xmlns="http://www.w3.org/2000/svg" version="1.1" xmlns:xlink="http://www.w3.org/1999/xlink" xmlns:svgjs="http://svgjs.dev/svgjs" width="1000" height="623" viewBox="0 0 1000 623"><g transform="matrix(1,0,0,1,-0.6060606060606233,0.2522267206477409)"><svg viewBox="0 0 396 247" data-background-color="#528265" preserveAspectRatio="xMidYMid meet" height="623" width="1000" xmlns="http://www.w3.org/2000/svg" xmlns:xlink="http://www.w3.org/1999/xlink"><defs></defs><g id="tight-bounds" transform="matrix(1,0,0,1,0.2400000000000091,-0.09999999999999432)"><svg viewBox="0 0 395.52 247.2" height="247.2" width="395.52"><g><svg></svg></g><g><svg viewBox="0 0 395.52 247.2" height="247.2" width="395.52"><g transform="matrix(1,0,0,1,75.54432,105.97660783265543)"><svg viewBox="0 0 244.43135999999998 35.24678433468913" height="35.24678433468913" width="244.43135999999998"><g><svg viewBox="0 0 244.43135999999998 35.24678433468913" height="35.24678433468913" width="244.43135999999998"><g><svg viewBox="0 0 244.43135999999998 35.24678433468913" height="35.24678433468913" width="244.43135999999998"><g><svg viewBox="0 0 244.43135999999998 35.24678433468913" height="35.24678433468913" width="244.43135999999998"><g><svg viewBox="0 0 244.43135999999998 35.24678433468913" height="35.24678433468913" width="244.43135999999998"><g><svg viewBox="0 0 244.43135999999998 35.24678433468913" height="35.24678433468913" width="244.43135999999998"><g transform="matrix(1,0,0,1,0,0)"><svg width="244.43135999999998" viewBox="3.75 -36.83000183105469 258.1300048828125 37.230003356933594" height="35.24678433468913" data-palette-color="#ffffff"><path d="M12.25-36.43L12.25 0 3.75 0 3.75-36.43 12.25-36.43ZM43.47-9.43L43.47-9.43Q43.77-9.43 44.07-9.31 44.37-9.2 44.65-8.93L44.65-8.93 48-5.4Q45.8-2.53 42.48-1.06 39.17 0.4 34.65 0.4L34.65 0.4Q30.5 0.4 27.21-1.01 23.92-2.43 21.64-4.91 19.35-7.4 18.12-10.81 16.9-14.23 16.9-18.23L16.9-18.23Q16.9-22.3 18.3-25.71 19.7-29.13 22.21-31.6 24.72-34.08 28.22-35.45 31.72-36.83 35.95-36.83L35.95-36.83Q38-36.83 39.81-36.46 41.62-36.1 43.2-35.46 44.77-34.83 46.1-33.94 47.42-33.05 48.45-31.98L48.45-31.98 45.6-28.15Q45.32-27.8 44.95-27.51 44.57-27.23 43.9-27.23L43.9-27.23Q43.45-27.23 43.05-27.43 42.65-27.63 42.2-27.91 41.75-28.2 41.21-28.54 40.67-28.88 39.94-29.16 39.2-29.45 38.21-29.65 37.22-29.85 35.9-29.85L35.9-29.85Q33.6-29.85 31.7-29.04 29.8-28.23 28.44-26.71 27.07-25.2 26.31-23.05 25.55-20.9 25.55-18.23L25.55-18.23Q25.55-15.43 26.31-13.25 27.07-11.08 28.39-9.59 29.7-8.1 31.45-7.33 33.2-6.55 35.2-6.55L35.2-6.55Q36.35-6.55 37.3-6.66 38.25-6.78 39.06-7.05 39.87-7.33 40.61-7.76 41.35-8.2 42.1-8.85L42.1-8.85Q42.4-9.1 42.75-9.26 43.1-9.43 43.47-9.43ZM51.85-36.43L75.3-36.43 75.3-29.93 60.35-29.93 60.35-21.43 71.8-21.43 71.8-15.18 60.35-15.18 60.35-6.5 75.3-6.5 75.3 0 51.85 0 51.85-36.43ZM114.22-9.43L114.22-9.43Q114.52-9.43 114.82-9.31 115.12-9.2 115.39-8.93L115.39-8.93 118.74-5.4Q116.54-2.53 113.23-1.06 109.92 0.4 105.39 0.4L105.39 0.4Q101.24 0.4 97.95-1.01 94.67-2.43 92.38-4.91 90.09-7.4 88.87-10.81 87.64-14.23 87.64-18.23L87.64-18.23Q87.64-22.3 89.04-25.71 90.44-29.13 92.95-31.6 95.47-34.08 98.97-35.45 102.47-36.83 106.69-36.83L106.69-36.83Q108.74-36.83 110.55-36.46 112.37-36.1 113.94-35.46 115.52-34.83 116.84-33.94 118.17-33.05 119.19-31.98L119.19-31.98 116.34-28.15Q116.07-27.8 115.69-27.51 115.32-27.23 114.64-27.23L114.64-27.23Q114.19-27.23 113.79-27.43 113.39-27.63 112.94-27.91 112.49-28.2 111.95-28.54 111.42-28.88 110.68-29.16 109.94-29.45 108.95-29.65 107.97-29.85 106.64-29.85L106.64-29.85Q104.34-29.85 102.44-29.04 100.54-28.23 99.18-26.71 97.82-25.2 97.05-23.05 96.29-20.9 96.29-18.23L96.29-18.23Q96.29-15.43 97.05-13.25 97.82-11.08 99.13-9.59 100.44-8.1 102.19-7.33 103.94-6.55 105.94-6.55L105.94-6.55Q107.09-6.55 108.04-6.66 108.99-6.78 109.8-7.05 110.62-7.33 111.35-7.76 112.09-8.2 112.84-8.85L112.84-8.85Q113.14-9.1 113.49-9.26 113.84-9.43 114.22-9.43ZM133.19-13.48L131.04-13.48 131.04 0 122.59 0 122.59-36.43 134.44-36.43Q138.39-36.43 141.18-35.61 143.96-34.8 145.73-33.35 147.49-31.9 148.29-29.93 149.09-27.95 149.09-25.63L149.09-25.63Q149.09-23.85 148.61-22.28 148.14-20.7 147.2-19.36 146.26-18.03 144.9-16.98 143.54-15.93 141.76-15.25L141.76-15.25Q142.61-14.83 143.35-14.2 144.09-13.58 144.64-12.68L144.64-12.68 152.39 0 144.74 0Q142.61 0 141.69-1.6L141.69-1.6 135.64-12.18Q135.24-12.88 134.7-13.18 134.16-13.48 133.19-13.48L133.19-13.48ZM131.04-30.1L131.04-19.3 134.44-19.3Q136.16-19.3 137.38-19.74 138.59-20.18 139.36-20.95 140.14-21.73 140.49-22.76 140.84-23.8 140.84-25L140.84-25Q140.84-27.4 139.28-28.75 137.71-30.1 134.44-30.1L134.44-30.1 131.04-30.1ZM155.84-36.43L179.29-36.43 179.29-29.93 164.34-29.93 164.34-21.43 175.79-21.43 175.79-15.18 164.34-15.18 164.34-6.5 179.29-6.5 179.29 0 155.84 0 155.84-36.43ZM203.88-36.43L217.98 0 211.43 0Q210.33 0 209.62-0.51 208.91-1.03 208.63-1.83L208.63-1.83 206.48-8.18 192.63-8.18 190.48-1.83Q190.23-1.13 189.51-0.56 188.78 0 187.73 0L187.73 0 181.13 0 195.23-36.43 203.88-36.43ZM197.93-23.85L194.58-13.93 204.53-13.93 201.18-23.9Q200.86-24.85 200.42-26.14 199.98-27.43 199.56-28.93L199.56-28.93Q199.16-27.4 198.73-26.1 198.31-24.8 197.93-23.85L197.93-23.85ZM239.56-16.65L239.56-16.65Q240.06-15.7 240.52-14.68 240.98-13.65 241.41-12.58L241.41-12.58Q241.83-13.68 242.31-14.71 242.78-15.75 243.28-16.73L243.28-16.73 252.63-35.13Q252.88-35.6 253.14-35.86 253.41-36.13 253.73-36.25 254.06-36.38 254.47-36.4 254.88-36.43 255.43-36.43L255.43-36.43 261.88-36.43 261.88 0 254.43 0 254.43-20.95Q254.43-22.48 254.58-24.25L254.58-24.25 244.93-5.53Q244.48-4.65 243.72-4.2 242.96-3.75 241.98-3.75L241.98-3.75 240.83-3.75Q239.86-3.75 239.09-4.2 238.33-4.65 237.88-5.53L237.88-5.53 228.18-24.28Q228.28-23.4 228.33-22.54 228.38-21.68 228.38-20.95L228.38-20.95 228.38 0 220.93 0 220.93-36.43 227.38-36.43Q227.93-36.43 228.34-36.4 228.75-36.38 229.08-36.25 229.41-36.13 229.67-35.86 229.93-35.6 230.18-35.13L230.18-35.13 239.56-16.65Z" opacity="1" transform="matrix(1,0,0,1,0,0)" fill="#ffffff" class="undefined-text-0" data-fill-palette-color="primary" id="text-0"></path></svg></g></svg></g></svg></g></svg></g></svg></g></svg></g></svg></g><path d="M179.881 99.977L179.881 36.789 6.26 36.789 6.26 210.411 179.881 210.411 179.881 147.223 176.702 147.223 176.702 207.232 9.438 207.232 9.438 39.968 176.702 39.968 176.702 99.977Z" fill="#ffffff" stroke="transparent" data-fill-palette-color="primary"></path></svg></g></svg><rect width="395.52" height="247.2" fill="none" stroke="none" visibility="hidden"></rect></g></svg></g></svg>